# xmcd CD database file
#
# Track frame offsets:
#	150
#	31962
#	50122
#	67915
#	96377
#	132242
#
# Disc length: 2150 seconds
#
# Revision: 0
# Processed by: cddbd v1.5.1PL0 Copyright (c) Steve Scherf et al.
# Submitted via: CDex 1.51
#
DISCID=51086406
DTITLE=Stanley Jordan - Stanley Jordan (Japan Import Sampler)
DYEAR=1990
DGENRE=Jazz
TTITLE0=Eleanor Rigby
TTITLE1=Sound of Silence
TTITLE2=My Favorite Things
TTITLE3=Stairway to Heaven
TTITLE4=Autumn Leaves
TTITLE5=What's Goin' On
EXTD=YEAR: 1990
EXTT0=
EXTT1=
EXTT2=
EXTT3=
EXTT4=
EXTT5=
PLAYORDER=
